<mxfile host="Electron" agent="Mozilla/5.0 (Windows NT 10.0; Win64; x64) AppleWebKit/537.36 (KHTML, like Gecko) draw.io/27.0.9 Chrome/134.0.6998.205 Electron/35.4.0 Safari/537.36" version="27.0.9">
  <diagram name="Страница — 1" id="6fcBIeLv_-rQTt_UuwC0">
    <mxGraphModel dx="2037" dy="1213" grid="1" gridSize="10" guides="1" tooltips="1" connect="1" arrows="1" fold="1" page="1" pageScale="1" pageWidth="827" pageHeight="1169" math="0" shadow="0">
      <root>
        <mxCell id="0" />
        <mxCell id="1" parent="0" />
        <mxCell id="fh7ekjRyxSGZczJAGrZy-66" value="Юрист страховой компании" style="swimlane;html=1;startSize=20;fontStyle=0;collapsible=0;horizontal=0;swimlaneLine=1;swimlaneFillColor=#ffffff;strokeWidth=2;whiteSpace=wrap;" vertex="1" parent="1">
          <mxGeometry x="30" y="140" width="1790" height="600" as="geometry" />
        </mxCell>
        <mxCell id="fh7ekjRyxSGZczJAGrZy-1" value="Пришло сообщение об обращении в суд" style="points=[[0.145,0.145,0],[0.5,0,0],[0.855,0.145,0],[1,0.5,0],[0.855,0.855,0],[0.5,1,0],[0.145,0.855,0],[0,0.5,0]];shape=mxgraph.bpmn.event;html=1;verticalLabelPosition=bottom;labelBackgroundColor=#ffffff;verticalAlign=top;align=center;perimeter=ellipsePerimeter;outlineConnect=0;aspect=fixed;outline=standard;symbol=message;" vertex="1" parent="fh7ekjRyxSGZczJAGrZy-66">
          <mxGeometry x="120" y="180" width="50" height="50" as="geometry" />
        </mxCell>
        <mxCell id="fh7ekjRyxSGZczJAGrZy-2" value="Изучить сообщение" style="points=[[0.25,0,0],[0.5,0,0],[0.75,0,0],[1,0.25,0],[1,0.5,0],[1,0.75,0],[0.75,1,0],[0.5,1,0],[0.25,1,0],[0,0.75,0],[0,0.5,0],[0,0.25,0]];shape=mxgraph.bpmn.task2;whiteSpace=wrap;rectStyle=rounded;size=10;html=1;container=1;expand=0;collapsible=0;taskMarker=abstract;" vertex="1" parent="fh7ekjRyxSGZczJAGrZy-66">
          <mxGeometry x="270" y="165" width="120" height="80" as="geometry" />
        </mxCell>
        <mxCell id="fh7ekjRyxSGZczJAGrZy-3" style="edgeStyle=orthogonalEdgeStyle;rounded=0;orthogonalLoop=1;jettySize=auto;html=1;exitX=1;exitY=0.5;exitDx=0;exitDy=0;exitPerimeter=0;entryX=0;entryY=0.5;entryDx=0;entryDy=0;entryPerimeter=0;" edge="1" parent="fh7ekjRyxSGZczJAGrZy-66" source="fh7ekjRyxSGZczJAGrZy-1" target="fh7ekjRyxSGZczJAGrZy-2">
          <mxGeometry relative="1" as="geometry" />
        </mxCell>
        <mxCell id="fh7ekjRyxSGZczJAGrZy-4" value="Обращение в суд возможно?" style="points=[[0.25,0.25,0],[0.5,0,0],[0.75,0.25,0],[1,0.5,0],[0.75,0.75,0],[0.5,1,0],[0.25,0.75,0],[0,0.5,0]];shape=mxgraph.bpmn.gateway2;html=1;verticalLabelPosition=bottom;labelBackgroundColor=#ffffff;verticalAlign=top;align=center;perimeter=rhombusPerimeter;outlineConnect=0;outline=none;symbol=none;gwType=exclusive;" vertex="1" parent="fh7ekjRyxSGZczJAGrZy-66">
          <mxGeometry x="460" y="180" width="50" height="50" as="geometry" />
        </mxCell>
        <mxCell id="fh7ekjRyxSGZczJAGrZy-5" style="edgeStyle=orthogonalEdgeStyle;rounded=0;orthogonalLoop=1;jettySize=auto;html=1;exitX=1;exitY=0.5;exitDx=0;exitDy=0;exitPerimeter=0;entryX=0;entryY=0.5;entryDx=0;entryDy=0;entryPerimeter=0;" edge="1" parent="fh7ekjRyxSGZczJAGrZy-66" source="fh7ekjRyxSGZczJAGrZy-2" target="fh7ekjRyxSGZczJAGrZy-4">
          <mxGeometry relative="1" as="geometry" />
        </mxCell>
        <mxCell id="fh7ekjRyxSGZczJAGrZy-20" style="edgeStyle=orthogonalEdgeStyle;rounded=0;orthogonalLoop=1;jettySize=auto;html=1;exitX=1;exitY=0.5;exitDx=0;exitDy=0;exitPerimeter=0;entryX=0;entryY=0.5;entryDx=0;entryDy=0;entryPerimeter=0;" edge="1" parent="1" source="fh7ekjRyxSGZczJAGrZy-6" target="fh7ekjRyxSGZczJAGrZy-54">
          <mxGeometry relative="1" as="geometry">
            <mxPoint x="1630" y="370" as="targetPoint" />
          </mxGeometry>
        </mxCell>
        <mxCell id="fh7ekjRyxSGZczJAGrZy-6" value="Закрыть дело" style="points=[[0.25,0,0],[0.5,0,0],[0.75,0,0],[1,0.25,0],[1,0.5,0],[1,0.75,0],[0.75,1,0],[0.5,1,0],[0.25,1,0],[0,0.75,0],[0,0.5,0],[0,0.25,0]];shape=mxgraph.bpmn.task2;whiteSpace=wrap;rectStyle=rounded;size=10;html=1;container=1;expand=0;collapsible=0;taskMarker=abstract;" vertex="1" parent="1">
          <mxGeometry x="1500" y="330" width="120" height="80" as="geometry" />
        </mxCell>
        <mxCell id="fh7ekjRyxSGZczJAGrZy-10" style="edgeStyle=orthogonalEdgeStyle;rounded=0;orthogonalLoop=1;jettySize=auto;html=1;exitX=0.5;exitY=1;exitDx=0;exitDy=0;exitPerimeter=0;entryX=0;entryY=0.5;entryDx=0;entryDy=0;entryPerimeter=0;" edge="1" parent="1" source="fh7ekjRyxSGZczJAGrZy-4" target="fh7ekjRyxSGZczJAGrZy-12">
          <mxGeometry relative="1" as="geometry">
            <mxPoint x="520" y="470" as="targetPoint" />
          </mxGeometry>
        </mxCell>
        <mxCell id="fh7ekjRyxSGZczJAGrZy-11" value="Да" style="edgeLabel;html=1;align=center;verticalAlign=middle;resizable=0;points=[];" vertex="1" connectable="0" parent="fh7ekjRyxSGZczJAGrZy-10">
          <mxGeometry x="0.1477" y="2" relative="1" as="geometry">
            <mxPoint x="-1" y="22" as="offset" />
          </mxGeometry>
        </mxCell>
        <mxCell id="fh7ekjRyxSGZczJAGrZy-12" value="Отправить запрос на возврат средств" style="points=[[0.25,0,0],[0.5,0,0],[0.75,0,0],[1,0.25,0],[1,0.5,0],[1,0.75,0],[0.75,1,0],[0.5,1,0],[0.25,1,0],[0,0.75,0],[0,0.5,0],[0,0.25,0]];shape=mxgraph.bpmn.task2;whiteSpace=wrap;rectStyle=rounded;size=10;html=1;container=1;expand=0;collapsible=0;taskMarker=send;" vertex="1" parent="1">
          <mxGeometry x="590" y="470" width="120" height="80" as="geometry" />
        </mxCell>
        <mxCell id="fh7ekjRyxSGZczJAGrZy-13" value="Назначить дату платежа" style="points=[[0.25,0,0],[0.5,0,0],[0.75,0,0],[1,0.25,0],[1,0.5,0],[1,0.75,0],[0.75,1,0],[0.5,1,0],[0.25,1,0],[0,0.75,0],[0,0.5,0],[0,0.25,0]];shape=mxgraph.bpmn.task2;whiteSpace=wrap;rectStyle=rounded;size=10;html=1;container=1;expand=0;collapsible=0;taskMarker=abstract;" vertex="1" parent="1">
          <mxGeometry x="790" y="470" width="120" height="80" as="geometry" />
        </mxCell>
        <mxCell id="fh7ekjRyxSGZczJAGrZy-14" style="edgeStyle=orthogonalEdgeStyle;rounded=0;orthogonalLoop=1;jettySize=auto;html=1;exitX=1;exitY=0.5;exitDx=0;exitDy=0;exitPerimeter=0;entryX=0;entryY=0.5;entryDx=0;entryDy=0;entryPerimeter=0;" edge="1" parent="1" source="fh7ekjRyxSGZczJAGrZy-12" target="fh7ekjRyxSGZczJAGrZy-13">
          <mxGeometry relative="1" as="geometry" />
        </mxCell>
        <mxCell id="fh7ekjRyxSGZczJAGrZy-19" style="edgeStyle=orthogonalEdgeStyle;rounded=0;orthogonalLoop=1;jettySize=auto;html=1;exitX=1;exitY=0.5;exitDx=0;exitDy=0;exitPerimeter=0;entryX=0;entryY=0.5;entryDx=0;entryDy=0;entryPerimeter=0;" edge="1" parent="1" source="fh7ekjRyxSGZczJAGrZy-13" target="fh7ekjRyxSGZczJAGrZy-35">
          <mxGeometry relative="1" as="geometry">
            <mxPoint x="930" y="455" as="sourcePoint" />
            <mxPoint x="960" y="475" as="targetPoint" />
          </mxGeometry>
        </mxCell>
        <mxCell id="fh7ekjRyxSGZczJAGrZy-24" value="Обработать платеж" style="points=[[0.25,0,0],[0.5,0,0],[0.75,0,0],[1,0.25,0],[1,0.5,0],[1,0.75,0],[0.75,1,0],[0.5,1,0],[0.25,1,0],[0,0.75,0],[0,0.5,0],[0,0.25,0]];shape=mxgraph.bpmn.task2;whiteSpace=wrap;rectStyle=rounded;size=10;html=1;container=1;expand=0;collapsible=0;taskMarker=abstract;" vertex="1" parent="1">
          <mxGeometry x="1250" y="330" width="120" height="80" as="geometry" />
        </mxCell>
        <mxCell id="fh7ekjRyxSGZczJAGrZy-28" value="" style="edgeStyle=orthogonalEdgeStyle;rounded=0;orthogonalLoop=1;jettySize=auto;html=1;exitX=0.5;exitY=0;exitDx=0;exitDy=0;exitPerimeter=0;entryX=0;entryY=0.5;entryDx=0;entryDy=0;entryPerimeter=0;" edge="1" parent="1" source="fh7ekjRyxSGZczJAGrZy-4" target="fh7ekjRyxSGZczJAGrZy-30">
          <mxGeometry relative="1" as="geometry">
            <mxPoint x="485" y="320" as="sourcePoint" />
            <mxPoint x="1110" y="180" as="targetPoint" />
          </mxGeometry>
        </mxCell>
        <mxCell id="fh7ekjRyxSGZczJAGrZy-29" value="Нет" style="edgeLabel;html=1;align=center;verticalAlign=middle;resizable=0;points=[];" vertex="1" connectable="0" parent="fh7ekjRyxSGZczJAGrZy-28">
          <mxGeometry x="-0.027" y="4" relative="1" as="geometry">
            <mxPoint x="-142" y="-1" as="offset" />
          </mxGeometry>
        </mxCell>
        <mxCell id="fh7ekjRyxSGZczJAGrZy-30" value="Принято решение, что обращение невозможно" style="points=[[0.145,0.145,0],[0.5,0,0],[0.855,0.145,0],[1,0.5,0],[0.855,0.855,0],[0.5,1,0],[0.145,0.855,0],[0,0.5,0]];shape=mxgraph.bpmn.event;html=1;verticalLabelPosition=bottom;labelBackgroundColor=#ffffff;verticalAlign=top;align=center;perimeter=ellipsePerimeter;outlineConnect=0;aspect=fixed;outline=throwing;symbol=general;" vertex="1" parent="1">
          <mxGeometry x="960" y="180" width="50" height="50" as="geometry" />
        </mxCell>
        <mxCell id="fh7ekjRyxSGZczJAGrZy-31" style="edgeStyle=orthogonalEdgeStyle;rounded=0;orthogonalLoop=1;jettySize=auto;html=1;exitX=1;exitY=0.5;exitDx=0;exitDy=0;exitPerimeter=0;entryX=0.5;entryY=0;entryDx=0;entryDy=0;entryPerimeter=0;" edge="1" parent="1" source="fh7ekjRyxSGZczJAGrZy-30" target="fh7ekjRyxSGZczJAGrZy-6">
          <mxGeometry relative="1" as="geometry" />
        </mxCell>
        <mxCell id="fh7ekjRyxSGZczJAGrZy-32" style="edgeStyle=orthogonalEdgeStyle;rounded=0;orthogonalLoop=1;jettySize=auto;html=1;exitX=1;exitY=0.5;exitDx=0;exitDy=0;exitPerimeter=0;entryX=0;entryY=0.5;entryDx=0;entryDy=0;entryPerimeter=0;" edge="1" parent="1" source="fh7ekjRyxSGZczJAGrZy-24" target="fh7ekjRyxSGZczJAGrZy-6">
          <mxGeometry relative="1" as="geometry" />
        </mxCell>
        <mxCell id="fh7ekjRyxSGZczJAGrZy-35" value="" style="points=[[0.25,0.25,0],[0.5,0,0],[0.75,0.25,0],[1,0.5,0],[0.75,0.75,0],[0.5,1,0],[0.25,0.75,0],[0,0.5,0]];shape=mxgraph.bpmn.gateway2;html=1;verticalLabelPosition=bottom;labelBackgroundColor=#ffffff;verticalAlign=top;align=center;perimeter=rhombusPerimeter;outlineConnect=0;outline=catching;symbol=multiple;" vertex="1" parent="1">
          <mxGeometry x="960" y="485" width="50" height="50" as="geometry" />
        </mxCell>
        <mxCell id="fh7ekjRyxSGZczJAGrZy-42" value="" style="edgeStyle=orthogonalEdgeStyle;rounded=0;orthogonalLoop=1;jettySize=auto;html=1;exitX=0.5;exitY=0;exitDx=0;exitDy=0;exitPerimeter=0;entryX=0;entryY=0.5;entryDx=0;entryDy=0;entryPerimeter=0;" edge="1" parent="1" source="fh7ekjRyxSGZczJAGrZy-35" target="fh7ekjRyxSGZczJAGrZy-41">
          <mxGeometry relative="1" as="geometry">
            <mxPoint x="985" y="450" as="sourcePoint" />
            <mxPoint x="1180" y="370" as="targetPoint" />
          </mxGeometry>
        </mxCell>
        <mxCell id="fh7ekjRyxSGZczJAGrZy-41" value="Деньги получены" style="points=[[0.145,0.145,0],[0.5,0,0],[0.855,0.145,0],[1,0.5,0],[0.855,0.855,0],[0.5,1,0],[0.145,0.855,0],[0,0.5,0]];shape=mxgraph.bpmn.event;html=1;verticalLabelPosition=bottom;labelBackgroundColor=#ffffff;verticalAlign=top;align=center;perimeter=ellipsePerimeter;outlineConnect=0;aspect=fixed;outline=catching;symbol=message;" vertex="1" parent="1">
          <mxGeometry x="1100" y="345" width="50" height="50" as="geometry" />
        </mxCell>
        <mxCell id="fh7ekjRyxSGZczJAGrZy-44" style="edgeStyle=orthogonalEdgeStyle;rounded=0;orthogonalLoop=1;jettySize=auto;html=1;exitX=1;exitY=0.5;exitDx=0;exitDy=0;exitPerimeter=0;entryX=0;entryY=0.5;entryDx=0;entryDy=0;entryPerimeter=0;" edge="1" parent="1" source="fh7ekjRyxSGZczJAGrZy-41" target="fh7ekjRyxSGZczJAGrZy-24">
          <mxGeometry relative="1" as="geometry" />
        </mxCell>
        <mxCell id="fh7ekjRyxSGZczJAGrZy-45" value="Ответ-жалоба от срахователя получен" style="points=[[0.145,0.145,0],[0.5,0,0],[0.855,0.145,0],[1,0.5,0],[0.855,0.855,0],[0.5,1,0],[0.145,0.855,0],[0,0.5,0]];shape=mxgraph.bpmn.event;html=1;verticalLabelPosition=bottom;labelBackgroundColor=#ffffff;verticalAlign=top;align=center;perimeter=ellipsePerimeter;outlineConnect=0;aspect=fixed;outline=catching;symbol=message;" vertex="1" parent="1">
          <mxGeometry x="1100" y="485" width="50" height="50" as="geometry" />
        </mxCell>
        <mxCell id="fh7ekjRyxSGZczJAGrZy-46" style="edgeStyle=orthogonalEdgeStyle;rounded=0;orthogonalLoop=1;jettySize=auto;html=1;exitX=1;exitY=0.5;exitDx=0;exitDy=0;exitPerimeter=0;entryX=0;entryY=0.5;entryDx=0;entryDy=0;entryPerimeter=0;" edge="1" parent="1" source="fh7ekjRyxSGZczJAGrZy-35" target="fh7ekjRyxSGZczJAGrZy-45">
          <mxGeometry relative="1" as="geometry" />
        </mxCell>
        <mxCell id="fh7ekjRyxSGZczJAGrZy-47" value="Изучить причину обжалования" style="points=[[0.25,0,0],[0.5,0,0],[0.75,0,0],[1,0.25,0],[1,0.5,0],[1,0.75,0],[0.75,1,0],[0.5,1,0],[0.25,1,0],[0,0.75,0],[0,0.5,0],[0,0.25,0]];shape=mxgraph.bpmn.task2;whiteSpace=wrap;rectStyle=rounded;size=10;html=1;container=1;expand=0;collapsible=0;taskMarker=abstract;" vertex="1" parent="1">
          <mxGeometry x="1250" y="470" width="120" height="80" as="geometry" />
        </mxCell>
        <mxCell id="fh7ekjRyxSGZczJAGrZy-48" style="edgeStyle=orthogonalEdgeStyle;rounded=0;orthogonalLoop=1;jettySize=auto;html=1;exitX=1;exitY=0.5;exitDx=0;exitDy=0;exitPerimeter=0;entryX=0;entryY=0.5;entryDx=0;entryDy=0;entryPerimeter=0;" edge="1" parent="1" source="fh7ekjRyxSGZczJAGrZy-45" target="fh7ekjRyxSGZczJAGrZy-47">
          <mxGeometry relative="1" as="geometry" />
        </mxCell>
        <mxCell id="fh7ekjRyxSGZczJAGrZy-49" value="Страхователь прав?" style="points=[[0.25,0.25,0],[0.5,0,0],[0.75,0.25,0],[1,0.5,0],[0.75,0.75,0],[0.5,1,0],[0.25,0.75,0],[0,0.5,0]];shape=mxgraph.bpmn.gateway2;html=1;verticalLabelPosition=bottom;labelBackgroundColor=#ffffff;verticalAlign=top;align=center;perimeter=rhombusPerimeter;outlineConnect=0;outline=none;symbol=none;gwType=exclusive;" vertex="1" parent="1">
          <mxGeometry x="1435" y="485" width="50" height="50" as="geometry" />
        </mxCell>
        <mxCell id="fh7ekjRyxSGZczJAGrZy-50" style="edgeStyle=orthogonalEdgeStyle;rounded=0;orthogonalLoop=1;jettySize=auto;html=1;exitX=1;exitY=0.5;exitDx=0;exitDy=0;exitPerimeter=0;entryX=0;entryY=0.5;entryDx=0;entryDy=0;entryPerimeter=0;" edge="1" parent="1" source="fh7ekjRyxSGZczJAGrZy-47" target="fh7ekjRyxSGZczJAGrZy-49">
          <mxGeometry relative="1" as="geometry" />
        </mxCell>
        <mxCell id="fh7ekjRyxSGZczJAGrZy-53" value="Конец" style="points=[[0.145,0.145,0],[0.5,0,0],[0.855,0.145,0],[1,0.5,0],[0.855,0.855,0],[0.5,1,0],[0.145,0.855,0],[0,0.5,0]];shape=mxgraph.bpmn.event;html=1;verticalLabelPosition=bottom;labelBackgroundColor=#ffffff;verticalAlign=top;align=center;perimeter=ellipsePerimeter;outlineConnect=0;aspect=fixed;outline=end;symbol=terminate2;" vertex="1" parent="1">
          <mxGeometry x="1750" y="345" width="50" height="50" as="geometry" />
        </mxCell>
        <mxCell id="fh7ekjRyxSGZczJAGrZy-54" value="Дело закрыто" style="points=[[0.145,0.145,0],[0.5,0,0],[0.855,0.145,0],[1,0.5,0],[0.855,0.855,0],[0.5,1,0],[0.145,0.855,0],[0,0.5,0]];shape=mxgraph.bpmn.event;html=1;verticalLabelPosition=bottom;labelBackgroundColor=#ffffff;verticalAlign=top;align=center;perimeter=ellipsePerimeter;outlineConnect=0;aspect=fixed;outline=throwing;symbol=general;" vertex="1" parent="1">
          <mxGeometry x="1650" y="345" width="50" height="50" as="geometry" />
        </mxCell>
        <mxCell id="fh7ekjRyxSGZczJAGrZy-55" style="edgeStyle=orthogonalEdgeStyle;rounded=0;orthogonalLoop=1;jettySize=auto;html=1;exitX=1;exitY=0.5;exitDx=0;exitDy=0;exitPerimeter=0;entryX=0;entryY=0.5;entryDx=0;entryDy=0;entryPerimeter=0;" edge="1" parent="1" source="fh7ekjRyxSGZczJAGrZy-54" target="fh7ekjRyxSGZczJAGrZy-53">
          <mxGeometry relative="1" as="geometry" />
        </mxCell>
        <mxCell id="fh7ekjRyxSGZczJAGrZy-56" value="Передать в коллекторское агентство" style="points=[[0.25,0,0],[0.5,0,0],[0.75,0,0],[1,0.25,0],[1,0.5,0],[1,0.75,0],[0.75,1,0],[0.5,1,0],[0.25,1,0],[0,0.75,0],[0,0.5,0],[0,0.25,0]];shape=mxgraph.bpmn.task2;whiteSpace=wrap;rectStyle=rounded;size=10;html=1;container=1;expand=0;collapsible=0;taskMarker=abstract;" vertex="1" parent="1">
          <mxGeometry x="1500" y="610" width="120" height="80" as="geometry" />
        </mxCell>
        <mxCell id="fh7ekjRyxSGZczJAGrZy-57" style="edgeStyle=orthogonalEdgeStyle;rounded=0;orthogonalLoop=1;jettySize=auto;html=1;exitX=1;exitY=0.5;exitDx=0;exitDy=0;exitPerimeter=0;entryX=0;entryY=0.5;entryDx=0;entryDy=0;entryPerimeter=0;" edge="1" parent="1" source="fh7ekjRyxSGZczJAGrZy-59" target="fh7ekjRyxSGZczJAGrZy-56">
          <mxGeometry relative="1" as="geometry" />
        </mxCell>
        <mxCell id="fh7ekjRyxSGZczJAGrZy-59" value="По истечению срока платеж не получен" style="points=[[0.145,0.145,0],[0.5,0,0],[0.855,0.145,0],[1,0.5,0],[0.855,0.855,0],[0.5,1,0],[0.145,0.855,0],[0,0.5,0]];shape=mxgraph.bpmn.event;html=1;verticalLabelPosition=bottom;labelBackgroundColor=#ffffff;verticalAlign=top;align=center;perimeter=ellipsePerimeter;outlineConnect=0;aspect=fixed;outline=boundInt;symbol=timer;" vertex="1" parent="1">
          <mxGeometry x="1100" y="625" width="50" height="50" as="geometry" />
        </mxCell>
        <mxCell id="fh7ekjRyxSGZczJAGrZy-60" style="edgeStyle=orthogonalEdgeStyle;rounded=0;orthogonalLoop=1;jettySize=auto;html=1;exitX=0.5;exitY=0;exitDx=0;exitDy=0;exitPerimeter=0;entryX=0.5;entryY=1;entryDx=0;entryDy=0;entryPerimeter=0;" edge="1" parent="1" source="fh7ekjRyxSGZczJAGrZy-49" target="fh7ekjRyxSGZczJAGrZy-6">
          <mxGeometry relative="1" as="geometry" />
        </mxCell>
        <mxCell id="fh7ekjRyxSGZczJAGrZy-61" value="Да" style="edgeLabel;html=1;align=center;verticalAlign=middle;resizable=0;points=[];" vertex="1" connectable="0" parent="fh7ekjRyxSGZczJAGrZy-60">
          <mxGeometry x="-0.3368" y="3" relative="1" as="geometry">
            <mxPoint y="-12" as="offset" />
          </mxGeometry>
        </mxCell>
        <mxCell id="fh7ekjRyxSGZczJAGrZy-62" style="edgeStyle=orthogonalEdgeStyle;rounded=0;orthogonalLoop=1;jettySize=auto;html=1;exitX=0.5;exitY=1;exitDx=0;exitDy=0;exitPerimeter=0;entryX=0;entryY=0.5;entryDx=0;entryDy=0;entryPerimeter=0;" edge="1" parent="1" source="fh7ekjRyxSGZczJAGrZy-35" target="fh7ekjRyxSGZczJAGrZy-59">
          <mxGeometry relative="1" as="geometry" />
        </mxCell>
        <mxCell id="fh7ekjRyxSGZczJAGrZy-63" style="edgeStyle=orthogonalEdgeStyle;rounded=0;orthogonalLoop=1;jettySize=auto;html=1;exitX=1;exitY=0.5;exitDx=0;exitDy=0;exitPerimeter=0;entryX=0.5;entryY=1;entryDx=0;entryDy=0;entryPerimeter=0;" edge="1" parent="1" source="fh7ekjRyxSGZczJAGrZy-56" target="fh7ekjRyxSGZczJAGrZy-53">
          <mxGeometry relative="1" as="geometry" />
        </mxCell>
        <mxCell id="fh7ekjRyxSGZczJAGrZy-64" style="edgeStyle=orthogonalEdgeStyle;rounded=0;orthogonalLoop=1;jettySize=auto;html=1;exitX=0.5;exitY=1;exitDx=0;exitDy=0;exitPerimeter=0;entryX=0.5;entryY=0;entryDx=0;entryDy=0;entryPerimeter=0;" edge="1" parent="1" source="fh7ekjRyxSGZczJAGrZy-49" target="fh7ekjRyxSGZczJAGrZy-56">
          <mxGeometry relative="1" as="geometry" />
        </mxCell>
        <mxCell id="fh7ekjRyxSGZczJAGrZy-65" value="Нет" style="edgeLabel;html=1;align=center;verticalAlign=middle;resizable=0;points=[];" vertex="1" connectable="0" parent="fh7ekjRyxSGZczJAGrZy-64">
          <mxGeometry x="0.2171" y="-2" relative="1" as="geometry">
            <mxPoint x="-48" y="11" as="offset" />
          </mxGeometry>
        </mxCell>
      </root>
    </mxGraphModel>
  </diagram>
</mxfile>
